PathFileType	4	(X/Y/Z)	OpenSim_Sub07_EMGBaseline_Gyro.trc
DataRate	CameraRate	NumFrames	NumMarkers	Units	OrigDataRate	OrigDataStartFrame	OrigNumFrames
100	100	33	8	m	100	1708	6828
Frame#	Time	torso_imu_offset_imu	pelvis_imu_offset_imu	tibia_r_imu_offset_imu	femur_r_imu_offset_imu	tibia_l_imu_offset_imu	femur_l_imu_offset_imu	toes_r_imu_offset_imu	toes_l_imu_offset_imu
				X1	Y1	Z1	X2	Y2	Z2	X3	Y3	Z3	X4	Y4	Z4	X5	Y5	Z5	X6	Y6	Z6	X7	Y7	Z7	X8		Y8	Z8	

1708	17.07000000	0.04272200	0.08927300	0.03288600	-0.15222900	0.12314000	-0.03700300	0.06781600	-0.30356900	-0.75988600	-0.33026500	0.00615300	-0.74513000	-1.09051200	-0.57490400	-2.75605800	1.90854600	-0.42691900	0.83591400	-0.00519800	-0.05162700	-0.05453300	-0.22247400	3.01970300	-2.28534800
1709	17.08000000	0.06761400	0.07762300	0.02845600	-0.16056500	0.09166000	-0.04869400	0.01963600	-0.33732500	-0.83393300	-0.41177600	0.01305600	-0.60177500	-1.59920500	-0.72544900	-2.66910600	1.63016700	-0.52126000	0.71607300	-0.01076100	-0.04419700	-0.05334800	-0.76413100	2.39143100	-2.60943300
1710	17.09000000	0.08490200	0.07049500	0.02122700	-0.13764100	0.03158500	-0.07571100	0.00026100	-0.34038500	-0.91205100	-0.42524800	0.04070000	-0.47025100	-1.96901100	-0.60350500	-2.47527900	0.85740600	-0.47596300	0.65981300	-0.01042200	-0.08628800	-0.03072400	-0.42879700	1.84208900	-2.73800000
1711	17.10000000	0.09563100	0.06613500	0.00062800	-0.13190100	-0.02732400	-0.10946900	-0.07501800	-0.37750900	-0.99200000	-0.35287200	0.08106700	-0.38996100	-1.85206400	-0.25692100	-2.02092900	0.07541700	-0.31360100	0.52579500	-0.00537300	-0.04515000	0.00812800	0.72893100	1.71149800	-2.50382200
1712	17.11000000	0.10419600	0.04912700	-0.02378500	-0.14701100	-0.07049500	-0.13560200	-0.12815800	-0.37986200	-1.08411700	-0.23121600	0.09371900	-0.36071100	-1.07093200	0.01515200	-1.51592900	-0.50068600	-0.19220700	0.33382400	-0.01462700	-0.07189800	0.03253200	0.09956800	1.46748300	-1.97692100
1713	17.12000000	0.09071400	0.03392800	-0.05208400	-0.16319800	-0.10245900	-0.15045400	-0.17094300	-0.40031600	-1.13995500	-0.12308000	0.05472100	-0.37741300	-0.37005600	0.01130500	-1.15392000	-0.82582800	-0.13692300	0.15284800	-0.03241500	-0.09376800	0.05631900	-0.17971600	1.24411700	-1.39495400
1714	17.13000000	0.08800900	0.01170600	-0.07660600	-0.18998800	-0.12200900	-0.16218300	-0.20432100	-0.41392800	-1.18461800	-0.08722700	0.02584400	-0.40157000	-0.07757300	-0.30786000	-0.80482100	-0.73425600	-0.16183200	0.00531600	-0.05108200	-0.12788600	0.06548700	-0.43567400	0.96324000	-0.89939300
1715	17.14000000	0.08849500	-0.00675100	-0.09998300	-0.22586500	-0.12580600	-0.17458900	-0.22248600	-0.41622200	-1.22093000	-0.15493400	0.04879900	-0.40164300	0.28583500	-0.61050700	-0.43476900	-0.36578600	-0.34931500	-0.04641700	-0.08098000	-0.14032600	0.07537300	-0.35280500	0.66805800	-0.54116800
1716	17.15000000	0.09802800	-0.03408400	-0.10023700	-0.28971500	-0.10462500	-0.18021400	-0.20597200	-0.40758500	-1.27365300	-0.32962500	0.08920500	-0.37249500	0.60449600	-0.62423800	-0.06416000	0.06100500	-0.62392900	0.02851600	-0.07202700	-0.19869000	0.08111300	0.24320500	-0.25995000	-0.13694500
1717	17.16000000	0.13237300	-0.07185500	-0.10241000	-0.33203300	-0.08377900	-0.20041200	-0.19450900	-0.40380500	-1.31119700	-0.54217000	0.12420900	-0.32115700	0.47049000	-0.36443200	0.31404400	0.40353500	-0.83018100	0.17922900	-0.12824500	-0.26843800	0.12988400	-2.44270900	-1.76117400	0.57893100
1718	17.17000000	0.16440700	-0.10826400	-0.09498000	-0.34370900	-0.04331200	-0.19673600	-0.27395800	-0.42085900	-1.33977300	-0.75883300	0.13980100	-0.22870400	-0.17661100	-0.01831700	0.72184800	0.41658100	-0.87119900	0.34286300	-0.24804500	-0.53834000	0.18385500	-3.41597700	-2.84491100	0.84879300
1719	17.18000000	0.20198600	-0.14408200	-0.09050300	-0.37927500	-0.00197100	-0.19712000	-0.22907800	-0.41511100	-1.36961400	-0.91335300	0.16705200	-0.14431400	-0.51203200	0.07387000	1.21277600	0.18549000	-0.82948700	0.35343900	-0.33708400	-0.62727600	0.23412700	-1.02302300	-1.98358600	0.53792700
1720	17.19000000	0.23401100	-0.18056700	-0.09384700	-0.39851900	0.01541500	-0.21030900	-0.20944100	-0.36948800	-1.43986200	-1.00245800	0.20154500	-0.10052000	-0.56117900	-0.03120600	1.65179600	0.12325700	-0.79222700	0.33031600	-0.37165800	-0.74493500	0.34557300	-0.77035000	-2.42112500	0.30933200
1721	17.20000000	0.27535200	-0.19704000	-0.08882300	-0.35860400	-0.02569800	-0.24859200	-0.22990200	-0.32424200	-1.52362000	-1.04075500	0.18542400	-0.06003200	-0.73389100	-0.21210400	1.68299600	0.16876900	-0.76063600	0.45821000	-0.43811400	-0.88978800	0.47593200	-2.15009400	-2.48964100	0.34727700
1722	17.21000000	0.31460000	-0.19595300	-0.08928900	-0.28392300	-0.11067700	-0.24825300	-0.17922900	-0.29984700	-1.57881600	-0.98998800	0.16117300	0.01281000	-0.82633100	-0.47144800	1.24355300	0.00972400	-0.79856600	0.54715500	-0.52172200	-1.06604100	0.57274600	-0.52756200	-3.36313700	0.37365900
1723	17.22000000	0.33656600	-0.20678900	-0.09368700	-0.30165900	-0.20663100	-0.27134100	-0.19909500	-0.31721900	-1.62165700	-0.83704600	0.14244400	0.06427500	-0.69133200	-0.62877000	0.86295700	-0.33547300	-0.84384700	0.36702600	-0.61793800	-1.30339100	0.61449800	0.09955400	-3.56313600	0.39944700
1724	17.23000000	0.32886300	-0.23655900	-0.10523500	-0.32339800	-0.23229000	-0.24699500	-0.23359800	-0.36390100	-1.66673500	-0.66596000	0.11420200	0.10665000	-0.88998900	-0.34376700	0.56751400	-0.72075700	-0.83411100	0.06780500	-0.62960700	-1.49200500	0.61996400	-0.36594700	-2.87378800	0.43775100
1725	17.24000000	0.31384200	-0.25373100	-0.11847600	-0.28940600	-0.19914600	-0.24259300	-0.27740400	-0.40386300	-1.71124500	-0.54619300	0.08398900	0.14597400	-1.38809000	0.17177200	0.62395100	-1.06715800	-0.86681900	-0.10429000	-0.71182300	-1.75185300	0.68013000	0.25779300	-0.83553200	0.54331700
1726	17.25000000	0.32239600	-0.21386600	-0.12496100	-0.16061600	-0.16396000	-0.24423600	-0.36347100	-0.43961900	-1.78788000	-0.50590800	0.05517800	0.22865100	-1.59837800	0.53322900	1.08636400	-1.41038900	-0.69179200	-0.13947800	-0.72260600	-1.99876500	0.73258300	-0.53251600	0.05678900	0.31170900
1727	17.26000000	0.33044000	-0.13988000	-0.11107800	-0.00766200	-0.16974700	-0.25461400	-0.38820600	-0.49030300	-1.86268600	-0.51069300	0.02488700	0.36579000	-1.23999300	0.88081800	1.58554800	-1.30559700	0.08455300	-0.23474000	-0.69464600	-2.38200700	0.74749400	-0.56734700	-0.28479800	0.08872400
1728	17.27000000	0.32451300	-0.10967600	-0.07683000	0.05725300	-0.20572800	-0.24220700	-0.39100100	-0.58376500	-1.92089300	-0.45402800	0.02412800	0.51832200	-0.88864800	0.88202400	1.78835600	-0.60546400	0.63954700	-0.32370500	-0.80036600	-2.74105600	0.77250000	-0.84403000	-0.43333400	0.03115900
1729	17.28000000	0.29920700	-0.12846600	-0.05837100	0.01808000	-0.23093800	-0.19518300	-0.36947700	-0.67232500	-1.98277200	-0.29340400	0.05772300	0.64788100	-1.07989300	0.27435600	1.77334800	-0.07097500	0.16129300	-0.21666900	-0.62314000	-3.09371300	0.76036600	-0.61929000	-0.21550700	0.00396600
1730	17.29000000	0.26145900	-0.16764700	-0.06446400	-0.09600300	-0.23516200	-0.12392400	-0.42024400	-0.72528800	-2.04190700	-0.10899000	0.08626000	0.75956000	-1.51283100	-0.48226600	1.69452500	0.59486000	-0.33113400	-0.00788800	-0.76071200	-3.50237300	0.92093500	0.26531700	-0.13378700	-0.03060000
1731	17.30000000	0.23634500	-0.19205000	-0.07696700	-0.18716900	-0.20614400	-0.06645800	-0.50249800	-0.77430200	-2.09904800	0.02135000	0.07451400	0.88615600	-1.49048300	-0.69720100	1.47847800	1.39613600	-0.39247800	0.32867600	-0.80287700	-3.86625000	1.09225000	-0.04129000	-0.10135400	0.01144700
1732	17.31000000	0.23688100	-0.19017000	-0.08050200	-0.22420600	-0.16597700	-0.04798300	-0.46063900	-0.77548100	-2.20670300	0.05078700	0.02489500	0.99318800	-1.02353700	-0.45535100	1.14856000	2.02364000	-0.57213500	0.71661700	-0.84359000	-4.32671300	1.23484700	-0.28756900	-0.05290800	0.05711700
1733	17.32000000	0.25962700	-0.19716200	-0.06454200	-0.23505000	-0.10897400	-0.05079700	-0.46046200	-0.77351200	-2.33597900	-0.00148700	0.04136800	1.11725800	-0.42380800	-0.35220900	0.76048500	2.16773500	-0.73384500	1.08322500	-1.15559300	-4.74423400	1.26300900	-0.12609700	-0.00297200	0.08697300
1734	17.33000000	0.28733800	-0.19460000	-0.04258000	-0.20704200	-0.06592500	-0.06276000	-0.55714300	-0.81195000	-2.46554900	-0.05008400	0.18290100	1.26363800	0.28109900	-0.38074000	0.55435000	2.00507500	-0.65648800	1.26725800	-0.71862200	-4.76278200	0.95072500	-0.13667500	0.01724300	0.09698900
1735	17.34000000	0.31271100	-0.19151200	-0.03223000	-0.19884200	-0.03218900	-0.09134500	-0.70636200	-0.78712800	-2.50270100	-0.05455400	0.31658800	1.44962200	0.71710200	-0.31295700	0.59798600	1.76847800	-0.58436500	1.30956900	-0.89273200	-5.27390400	1.05218200	-0.08423900	0.01761000	0.08310100
1736	17.35000000	0.32405100	-0.18323200	-0.02153800	-0.22172400	-0.00965400	-0.10701400	-0.88159300	-0.67529300	-2.49976800	0.11603500	0.31801100	1.65186600	0.83233600	-0.15887400	0.64846000	1.44718000	-0.55255100	1.28779100	-1.16389000	-5.52453500	1.17344100	-0.01182600	-0.08871700	0.09117200
1737	17.36000000	0.33422900	-0.15922900	-0.01640600	-0.27078100	-0.00624100	-0.10638600	-0.67271200	-0.56625500	-2.63868100	0.21385300	0.32493600	1.78800100	0.62225400	-0.06932800	0.67543100	0.93678600	-0.48295400	1.18959200	-1.12091700	-5.53855700	0.95375800	-0.05206200	0.05804400	0.04717300
1738	17.37000000	0.35051900	-0.13190600	-0.01518000	-0.32451500	-0.02074300	-0.10190700	-0.46718700	-0.53726100	-2.76750300	0.16251800	0.22307600	1.88250300	0.22235400	-0.08955300	0.71074600	0.22251500	-0.44309000	1.00407800	-0.69242400	-5.47128600	0.54029100	0.01522500	-0.00905600	0.02471900
1739	17.38000000	0.37144600	-0.10201600	-0.00651700	-0.35992400	-0.02910500	-0.11072600	-0.24864800	-0.63747800	-2.73953900	0.08761200	-0.00288900	2.00217700	-0.15570300	-0.10750500	0.70713000	-0.36049700	-0.42642600	0.83238800	-0.07868800	-5.22403100	-0.05857900	-0.01777900	-0.00985100	0.00468900
1740	17.39000000	0.38083000	-0.05652600	-0.01116500	-0.37223900	-0.03007800	-0.12607000	-0.12721500	-0.75795500	-2.51254800	0.00455100	-0.16505000	2.06592100	-0.43576600	-0.12686600	0.61757000	-0.67089700	-0.35962000	0.76758100	0.46208400	-5.03257200	-0.53691100	0.02001000	-0.03942300	-0.01967500
